<mxfile host="app.diagrams.net" agent="Mozilla/5.0 (Macintosh; Intel Mac OS X 10.15; rv:129.0) Gecko/20100101 Firefox/129.0" version="24.7.7">
  <diagram name="Page-1" id="3Db-YNZQCV21ImmfFxcW">
    <mxGraphModel dx="3980" dy="3650" grid="1" gridSize="10" guides="1" tooltips="1" connect="1" arrows="1" fold="1" page="1" pageScale="1" pageWidth="850" pageHeight="1100" math="1" shadow="0">
      <root>
        <mxCell id="0" />
        <mxCell id="1" parent="0" />
        <mxCell id="r_fD3_Vup8o90gPb363T-36" value="" style="rounded=1;whiteSpace=wrap;html=1;" vertex="1" parent="1">
          <mxGeometry x="150" y="-42.5" width="340" height="192.5" as="geometry" />
        </mxCell>
        <mxCell id="r_fD3_Vup8o90gPb363T-1" value="" style="ellipse;whiteSpace=wrap;html=1;aspect=fixed;fillColor=#666666;" vertex="1" parent="1">
          <mxGeometry x="570" y="390" width="20" height="20" as="geometry" />
        </mxCell>
        <mxCell id="r_fD3_Vup8o90gPb363T-2" value="" style="ellipse;whiteSpace=wrap;html=1;aspect=fixed;fillColor=#666666;" vertex="1" parent="1">
          <mxGeometry x="630" y="410" width="20" height="20" as="geometry" />
        </mxCell>
        <mxCell id="r_fD3_Vup8o90gPb363T-3" value="" style="ellipse;whiteSpace=wrap;html=1;aspect=fixed;fillColor=#666666;" vertex="1" parent="1">
          <mxGeometry x="680" y="390" width="20" height="20" as="geometry" />
        </mxCell>
        <mxCell id="r_fD3_Vup8o90gPb363T-4" value="" style="ellipse;whiteSpace=wrap;html=1;aspect=fixed;fillColor=#666666;" vertex="1" parent="1">
          <mxGeometry x="730" y="380" width="20" height="20" as="geometry" />
        </mxCell>
        <mxCell id="r_fD3_Vup8o90gPb363T-5" value="" style="ellipse;whiteSpace=wrap;html=1;aspect=fixed;fillColor=#666666;" vertex="1" parent="1">
          <mxGeometry x="800" y="410" width="20" height="20" as="geometry" />
        </mxCell>
        <mxCell id="r_fD3_Vup8o90gPb363T-6" value="" style="ellipse;whiteSpace=wrap;html=1;aspect=fixed;fillColor=#666666;" vertex="1" parent="1">
          <mxGeometry x="480" y="410" width="20" height="20" as="geometry" />
        </mxCell>
        <mxCell id="r_fD3_Vup8o90gPb363T-7" value="" style="ellipse;whiteSpace=wrap;html=1;aspect=fixed;fillColor=#CC0000;strokeWidth=4;strokeColor=default;" vertex="1" parent="1">
          <mxGeometry x="520" y="210" width="20" height="20" as="geometry" />
        </mxCell>
        <mxCell id="r_fD3_Vup8o90gPb363T-8" value="" style="ellipse;whiteSpace=wrap;html=1;aspect=fixed;fillColor=#666666;" vertex="1" parent="1">
          <mxGeometry x="401" y="420" width="20" height="20" as="geometry" />
        </mxCell>
        <mxCell id="r_fD3_Vup8o90gPb363T-9" value="" style="ellipse;whiteSpace=wrap;html=1;aspect=fixed;fillColor=#666666;" vertex="1" parent="1">
          <mxGeometry x="440" y="430" width="20" height="20" as="geometry" />
        </mxCell>
        <mxCell id="r_fD3_Vup8o90gPb363T-13" value="" style="ellipse;whiteSpace=wrap;html=1;aspect=fixed;fillColor=#99FFFF;strokeColor=#0000CC;strokeWidth=4;" vertex="1" parent="1">
          <mxGeometry x="900" y="-30" width="20" height="20" as="geometry" />
        </mxCell>
        <mxCell id="r_fD3_Vup8o90gPb363T-14" value="" style="ellipse;whiteSpace=wrap;html=1;aspect=fixed;fillColor=#99FFFF;strokeColor=#0000CC;strokeWidth=4;" vertex="1" parent="1">
          <mxGeometry x="950" y="-40" width="20" height="20" as="geometry" />
        </mxCell>
        <mxCell id="r_fD3_Vup8o90gPb363T-15" value="" style="ellipse;whiteSpace=wrap;html=1;aspect=fixed;fillColor=#99FFFF;strokeColor=#0000CC;strokeWidth=4;" vertex="1" parent="1">
          <mxGeometry x="1020" y="-10" width="20" height="20" as="geometry" />
        </mxCell>
        <mxCell id="r_fD3_Vup8o90gPb363T-16" value="" style="ellipse;whiteSpace=wrap;html=1;aspect=fixed;fillColor=#666666;" vertex="1" parent="1">
          <mxGeometry x="1070" y="385" width="20" height="20" as="geometry" />
        </mxCell>
        <mxCell id="r_fD3_Vup8o90gPb363T-17" value="" style="ellipse;whiteSpace=wrap;html=1;aspect=fixed;fillColor=#666666;" vertex="1" parent="1">
          <mxGeometry x="1127" y="405" width="20" height="20" as="geometry" />
        </mxCell>
        <mxCell id="r_fD3_Vup8o90gPb363T-18" value="" style="ellipse;whiteSpace=wrap;html=1;aspect=fixed;fillColor=#666666;" vertex="1" parent="1">
          <mxGeometry x="1180" y="385" width="20" height="20" as="geometry" />
        </mxCell>
        <mxCell id="r_fD3_Vup8o90gPb363T-19" value="" style="ellipse;whiteSpace=wrap;html=1;aspect=fixed;fillColor=#666666;" vertex="1" parent="1">
          <mxGeometry x="1233" y="375" width="20" height="20" as="geometry" />
        </mxCell>
        <mxCell id="r_fD3_Vup8o90gPb363T-20" value="" style="ellipse;whiteSpace=wrap;html=1;aspect=fixed;fillColor=#666666;" vertex="1" parent="1">
          <mxGeometry x="1285" y="405" width="20" height="20" as="geometry" />
        </mxCell>
        <mxCell id="r_fD3_Vup8o90gPb363T-21" value="" style="ellipse;whiteSpace=wrap;html=1;aspect=fixed;fillColor=#666666;" vertex="1" parent="1">
          <mxGeometry x="1440" y="375" width="20" height="20" as="geometry" />
        </mxCell>
        <mxCell id="r_fD3_Vup8o90gPb363T-22" value="" style="ellipse;whiteSpace=wrap;html=1;aspect=fixed;fillColor=#666666;" vertex="1" parent="1">
          <mxGeometry x="1338" y="385" width="20" height="20" as="geometry" />
        </mxCell>
        <mxCell id="r_fD3_Vup8o90gPb363T-23" value="" style="ellipse;whiteSpace=wrap;html=1;aspect=fixed;fillColor=#666666;" vertex="1" parent="1">
          <mxGeometry x="1391" y="395" width="20" height="20" as="geometry" />
        </mxCell>
        <mxCell id="r_fD3_Vup8o90gPb363T-24" value="" style="ellipse;whiteSpace=wrap;html=1;aspect=fixed;fillColor=#CC0000;strokeWidth=4;strokeColor=default;perimeterSpacing=8;" vertex="1" parent="1">
          <mxGeometry x="1500" y="190" width="20" height="20" as="geometry" />
        </mxCell>
        <mxCell id="r_fD3_Vup8o90gPb363T-25" value="" style="ellipse;whiteSpace=wrap;html=1;aspect=fixed;fillColor=#666666;" vertex="1" parent="1">
          <mxGeometry x="1540" y="375" width="20" height="20" as="geometry" />
        </mxCell>
        <mxCell id="r_fD3_Vup8o90gPb363T-26" value="" style="ellipse;whiteSpace=wrap;html=1;aspect=fixed;fillColor=#666666;" vertex="1" parent="1">
          <mxGeometry x="1568" y="405" width="20" height="20" as="geometry" />
        </mxCell>
        <mxCell id="r_fD3_Vup8o90gPb363T-27" value="" style="ellipse;whiteSpace=wrap;html=1;aspect=fixed;fillColor=#666666;" vertex="1" parent="1">
          <mxGeometry x="1621" y="415" width="20" height="20" as="geometry" />
        </mxCell>
        <mxCell id="r_fD3_Vup8o90gPb363T-30" value="" style="ellipse;whiteSpace=wrap;html=1;aspect=fixed;fillColor=#CC0000;strokeWidth=4;strokeColor=default;" vertex="1" parent="1">
          <mxGeometry x="180" y="-15" width="30" height="30" as="geometry" />
        </mxCell>
        <mxCell id="r_fD3_Vup8o90gPb363T-31" value="" style="ellipse;whiteSpace=wrap;html=1;aspect=fixed;fillColor=#99FFFF;strokeColor=#0000CC;strokeWidth=4;" vertex="1" parent="1">
          <mxGeometry x="180" y="40" width="30" height="30" as="geometry" />
        </mxCell>
        <mxCell id="r_fD3_Vup8o90gPb363T-32" value="\(\text{Statistical outliers}\)" style="text;html=1;align=left;verticalAlign=middle;whiteSpace=wrap;rounded=0;fontSize=22;" vertex="1" parent="1">
          <mxGeometry x="240" y="-37.5" width="150" height="75" as="geometry" />
        </mxCell>
        <mxCell id="r_fD3_Vup8o90gPb363T-33" value="\(\text{Small components}\)" style="text;html=1;align=left;verticalAlign=middle;whiteSpace=wrap;rounded=0;fontSize=22;" vertex="1" parent="1">
          <mxGeometry x="240" y="17.5" width="150" height="75" as="geometry" />
        </mxCell>
        <mxCell id="r_fD3_Vup8o90gPb363T-34" value="" style="ellipse;whiteSpace=wrap;html=1;aspect=fixed;fillColor=#666666;" vertex="1" parent="1">
          <mxGeometry x="180" y="100" width="30" height="30" as="geometry" />
        </mxCell>
        <mxCell id="r_fD3_Vup8o90gPb363T-35" value="\(\text{Unfiltered points}\)" style="text;html=1;align=left;verticalAlign=middle;whiteSpace=wrap;rounded=0;fontSize=22;" vertex="1" parent="1">
          <mxGeometry x="240" y="77.5" width="150" height="75" as="geometry" />
        </mxCell>
        <mxCell id="r_fD3_Vup8o90gPb363T-37" value="" style="endArrow=classic;html=1;rounded=0;strokeWidth=5;" edge="1" parent="1">
          <mxGeometry width="50" height="50" relative="1" as="geometry">
            <mxPoint x="154" y="445" as="sourcePoint" />
            <mxPoint x="324" y="445" as="targetPoint" />
          </mxGeometry>
        </mxCell>
        <mxCell id="r_fD3_Vup8o90gPb363T-38" value="" style="endArrow=classic;html=1;rounded=0;strokeWidth=5;" edge="1" parent="1">
          <mxGeometry width="50" height="50" relative="1" as="geometry">
            <mxPoint x="155" y="447" as="sourcePoint" />
            <mxPoint x="155" y="287" as="targetPoint" />
          </mxGeometry>
        </mxCell>
        <mxCell id="r_fD3_Vup8o90gPb363T-39" value="\(X,Y\)" style="text;html=1;align=center;verticalAlign=middle;whiteSpace=wrap;rounded=0;fontSize=22;" vertex="1" parent="1">
          <mxGeometry x="280" y="395" width="65" height="35" as="geometry" />
        </mxCell>
        <mxCell id="r_fD3_Vup8o90gPb363T-40" value="\(Z\)" style="text;html=1;align=center;verticalAlign=middle;whiteSpace=wrap;rounded=0;fontSize=22;" vertex="1" parent="1">
          <mxGeometry x="140" y="245" width="30" height="35" as="geometry" />
        </mxCell>
      </root>
    </mxGraphModel>
  </diagram>
</mxfile>
